<svg version="1.2" xmlns="http://www.w3.org/2000/svg" viewBox="0 0 1000 1000" width="1000" height="1000">
    <style>
        .a {
            fill: #8d77fd
        }

        .b {
            fill: #8d76ff
        }

        .c {
            fill: #fffeff
        }

        .d {
            fill: #8d79f6
        }

        .e {
            fill: #fffffb
        }
    </style>
    <path class="c"
        d="m469.5 168.7c-1.6 0.2-8.2 1.3-14.5 2.4-6.3 1.2-15.6 3.6-20.5 5.4-4.9 1.8-10.7 4.1-12.8 5.1-2 1.1-3.7 2.2-3.7 2.7 0 0.4 1.4 0.7 3.1 0.7 1.7 0 3.7-0.8 4.7-2 0.9-1 2.9-2.2 4.5-2.5 1.5-0.3 2.7-0.1 2.7 0.5 0 0.6 1.5 1.2 3.3 1.3l3.2 0.4c-5.4 0.2-6.5 0.8-6.5 1.8 0 1.1-1.1 1.5-3.6 1.5-2 0-4.1 0.6-4.7 1.4-0.6 0.8-2.7 1.6-4.6 1.8l-3.5 0.3c-0.1 13.4-0.5 17.7-0.9 18.2-0.5 0.4-4.1 0.8-8 0.8-7.1 0-7.2 0-7.4-2.7-0.2-1.6-0.7-2.8-1.3-2.8-0.6 0-1-0.4-1-1 0-0.6 1.7-0.8 4.3-0.4 3.1 0.5 4.6 0.3 6-1 0.9-0.9 1.7-2.8 1.7-4.3 0-1.6 0.7-3.8 1.5-5 0.9-1.3 2.2-2.3 3-2.3 0.8 0 1.7-0.9 2-2 0.3-1.1 0.2-2-0.2-2-0.5 0-2.4 0.6-4.3 1.4-1.9 0.8-4.7 2.5-6.1 3.8-1.5 1.2-5.5 4.3-9 6.8-3.4 2.5-9.3 7.4-12.9 11-3.7 3.6-9.3 9.7-12.6 13.5-3.3 3.9-7.2 8.9-8.7 11.3-1.5 2.3-3.1 4.2-3.7 4.2-0.6 0-1 0.8-1 1.8 0 0.9-0.9 2.7-2 4-1.1 1.2-2 2.4-2 2.7 0 0.3-1.6 3.1-3.5 6.3-1.9 3.1-3.5 6.3-3.5 7 0 0.6-1.1 2.9-2.3 5-1.3 2-2.9 5.3-3.6 7.2-0.6 1.9-2.3 7.3-3.7 12-1.4 4.7-3.2 10-4 11.8-0.8 1.7-1.2 3.6-0.9 4.2 0.3 0.6 0 2.2-0.6 3.8-0.5 1.5-1.7 6.5-2.5 11.2-0.8 4.7-2.1 14.4-3 21.5-0.8 7.1-1.5 20-1.4 28.5 0 8.5 0.2 16.9 0.5 18.5 0.2 1.6 1.1 7.7 2 13.5 0.9 5.8 1.8 11.9 1.9 13.5 0.2 1.6 1 5.7 2 9 0.9 3.3 2.8 10.1 4.2 15 1.5 4.9 2.7 9.7 2.9 10.5 0.1 0.8 0.7 2.4 1.3 3.5 0.5 1.1 3.4 8.1 6.2 15.5 2.9 7.4 7.9 18.9 11.1 25.5 3.2 6.6 5.9 12.6 5.9 13.3 0 0.6 1.1 2.4 2.4 4 1.3 1.5 4 5.8 6.1 9.7 2 3.9 4.6 8.6 5.8 10.5 1.2 1.9 3.7 5.5 5.5 8 1.8 2.5 3.3 5 3.2 5.5 0 0.5 1.7 3 3.8 5.5 2.1 2.5 7.1 8.9 11.2 14.4 4.1 5.4 8.2 10.8 9 12 0.8 1.1 2.8 3.4 4.4 5.1 1.5 1.6 4 4.5 5.5 6.4 1.4 1.9 3.7 4.7 5.1 6.2 1.4 1.5 5.9 6.5 10 11 4.1 4.5 9.1 9.8 11 11.8 1.9 2 8.5 8.3 14.6 14.1 6.1 5.8 12.3 12.5 13.9 15 1.5 2.5 3.1 4.7 3.5 5 0.4 0.3 1.9 2.8 3.2 5.5 1.4 2.8 2.8 6.5 3.2 8.3 0.4 1.9 0.1 4.3-0.8 6-1 2-2.4 2.9-5.2 3.4-2.2 0.4-6.1 0.2-8.9-0.4-2.7-0.5-5.7-1.6-6.5-2.3-0.8-0.7-2.6-1.6-4-2-1.4-0.4-3.6-1.5-5-2.4-1.4-0.9-3.8-2.3-5.4-3.1-1.6-0.8-3.8-2.4-5-3.6-1.1-1.1-4.8-3.8-8-6-3.3-2.1-9.6-5.8-14-8.2-4.5-2.4-11.5-5.2-15.6-6.2-4.1-1.1-9-1.9-10.7-2-1.8 0-5.7 1.1-8.5 2.4-3.1 1.4-6.3 3.8-7.6 5.8-1.3 1.8-5.6 8.2-9.5 14.2-4 5.9-8.7 13.1-10.4 16-1.8 2.8-3.6 6-4 7.1-0.4 1.1-1.7 3.8-2.9 6-1.2 2.2-3.9 7.5-6 11.8-2.2 4.2-4.2 7.7-4.6 7.7-0.5 0-0.8 0.7-0.8 1.5 0 0.8-0.6 2.7-1.4 4.3-0.8 1.5-2.3 8.3-3.5 15.2-2.1 12.2-2.1 12.7-0.3 20 1 4.3 3.8 11.1 6.5 16 2.7 5.1 7.4 11.4 11.4 15.6 3.7 3.9 9.3 9.2 12.3 11.7 3 2.5 8.6 6.6 12.5 9.2 3.9 2.5 12.2 7.2 18.5 10.4 6.3 3.2 13.3 6.4 15.5 7.1 2.2 0.7 4.4 1.6 5 2 0.6 0.4 4.1 1.6 8 2.8 3.9 1.2 10.8 3.1 15.5 4.3 4.7 1.1 11 2.5 14 3.1 3 0.5 5.8 1.1 6.2 1.4 0.5 0.2 6.1 0.7 12.5 1.2 6.5 0.4 18.3 0.7 26.3 0.7 8 0 19.2-0.4 25-0.8 5.8-0.5 12-0.8 13.7-0.8 1.8 0.1 3.3-0.2 3.3-0.6 0-0.5 2.9-1.4 6.5-2 3.6-0.7 7.5-1.3 8.8-1.3 1.3 0 2.7-0.4 3.3-0.8 0.5-0.5 4.5-1.9 8.9-3.1 4.4-1.2 9-2.8 10.3-3.4 1.2-0.7 2.2-1.5 2.2-1.9 0-0.5-0.7-0.8-1.5-0.8-1.2 0-1.4-0.9-0.9-4.2 0.4-2.4 1.2-4.9 1.8-5.5 0.6-0.7 3.7-1.5 6.8-1.8 4.5-0.4 6-1 6.8-2.5 0.7-1.5 2-2 5-2 2.9 0 4 0.4 4 1.5 0 0.8-2.4 2.6-5.3 4-2.8 1.3-6.3 2.5-7.7 2.5-1.4-0.1-3.6 1.1-5.1 2.7-1.8 1.9-2.4 3.3-1.9 4.3 0.7 1.3 1.8 1.1 7.2-1.3 3.5-1.6 7.4-3.8 8.8-4.8 1.4-1.1 3.1-2 3.7-1.9 0.7 0 3-1.2 5-2.7 2.1-1.6 6.9-5.4 10.8-8.7 3.9-3.2 9.7-8.6 13-12.1 3.3-3.4 7.4-7.7 9-9.5 1.6-1.9 3.5-4.3 4.2-5.4 0.7-1.2 1.5-2.8 1.9-3.6 0.4-0.8 2-3.2 3.6-5.2 1.5-2.1 2.8-4 2.8-4.3 0-0.3 1.4-2.6 3.2-5.2 1.7-2.7 3.7-6.6 4.4-8.8 0.7-2.2 2.6-7.6 4.3-12 1.7-4.4 3.4-9.6 3.7-11.5 0.3-1.9 0.9-4.9 1.4-6.5 0.5-1.6 1.4-5.7 2-9 0.6-3.3 1.3-15 1.4-26 0.3-14.9 0-21-1-24-0.8-2.2-1.4-5.4-1.4-7 0-2.4-0.2-2.7-1.1-1.5-0.8 1.1-0.9 0.8-0.4-1.5 0.3-1.9-0.6-6.7-2.4-13-1.6-5.5-4-12.9-5.4-16.5-1.3-3.6-4.2-10.1-6.3-14.5-2.1-4.4-5.4-10.7-7.4-14.1-1.9-3.4-4.8-7.6-6.3-9.5-1.6-1.9-3.7-5-4.7-6.9-1-1.9-3-4.6-4.5-6-1.4-1.4-3.6-4.1-4.8-6-1.2-1.9-2.9-4.2-3.7-5.1-0.8-0.9-3.1-3.6-5-5.9-1.9-2.4-4.5-5.4-5.8-6.7-1.2-1.3-2.2-2.6-2.2-3 0-0.5-2.1-2.9-4.7-5.5-2.6-2.6-16.3-16.5-30.3-31-14-14.4-27.5-28.3-30-30.9-2.5-2.5-6.5-6.9-9-9.8-2.5-2.8-5.8-6.6-7.4-8.4-1.6-1.7-3.5-4.7-4.2-6.4-0.8-1.8-1.7-3.4-2.2-3.5-0.4-0.2-1.9-2.2-3.5-4.5-1.5-2.4-2.7-4.7-2.7-5.3 0-0.5-1.3-2.9-2.8-5.2-1.5-2.4-5.1-9-7.9-14.8-2.8-5.8-6.6-15.4-8.3-21.5-1.8-6-3.9-15.5-4.7-21-1-7.4-1.1-11.3-0.4-15 0.6-2.7 1.8-6.1 2.8-7.4 1.5-2 2.4-2.3 5.5-1.7 2.6 0.4 4.9 1.8 7.3 4.4 2 2 3.8 4.8 4.1 6.2 0.2 1.4 1.4 5.2 2.5 8.5 1.2 3.3 2.7 8.5 3.5 11.5 0.8 3 2.1 6.6 2.8 8 0.8 1.4 2.1 5 3 8 0.8 3 2.7 7.2 4.1 9.3 1.4 2 2.5 3.9 2.5 4.2 0 0.3 2.7 4.4 6 9.3 4 5.9 7.5 9.7 10.7 11.8 3 2 6.7 3.4 9.8 3.8 2.7 0.3 9.3 0.6 14.5 0.6 5.2 0 13.5-0.2 18.5-0.5 5-0.3 11.7-1 15-1.5 3.3-0.6 8.5-1.5 11.5-2.1 3-0.6 8.4-2 12-3.1 3.6-1.2 8.3-3.3 10.5-4.7 2.2-1.3 5-3.4 6.3-4.5 1.2-1.2 2.2-1.8 2.2-1.3 0 0.4 2.5-1.8 5.5-4.8 3-3 7.5-8.5 9.9-12.2 3.3-5.3 4.9-9.2 6.9-17.3 1.8-7.5 2.6-13.5 2.7-21 0-5.8-0.6-14.8-1.5-20-0.8-5.2-2.7-13.5-4.2-18.5-1.4-4.9-3.6-11.7-4.8-15-1.3-3.3-4.4-10.5-7-16-2.6-5.5-5.6-11.8-6.8-14-1.1-2.2-4.1-7.4-6.6-11.5-2.4-4.1-7-11.1-10.2-15.5-3.1-4.4-9.9-12.3-15-17.5-5.2-5.3-11.9-11.6-14.9-14-3-2.5-6.2-5.3-7.2-6.2-1-1-3-2.6-4.6-3.5-1.5-1-4.5-3.1-6.7-4.8-2.2-1.7-6-4.1-8.5-5.3-2.5-1.3-6.1-3.1-8-4.2-1.9-1-8-3.8-13.5-6.3-5.5-2.4-12.3-5-15-5.7-2.8-0.7-5.5-1.6-6-2-0.5-0.4-4.4-1.5-8.5-2.4-4.1-0.8-11.8-2.2-17-3.1-5.5-0.9-15-1.4-22.5-1.3-7.1 0-14.4 0.3-16 0.5z" />
    <path class="e"
        d="m428.5 181c-1.2 0.5-2.5 1.6-3 2.6-0.8 1.3-1.9 1.5-5.3 1-2.3-0.3-4.1-0.3-4.1 0.1 0.1 0.5 0.1 1.6 0 2.5 0 1-0.8 1.8-1.6 1.8-0.8 0-2.2 1-3 2.3-0.8 1.2-1.5 3.4-1.5 5 0 1.5-0.8 3.4-1.8 4.3-1.3 1.3-2.8 1.5-6 1-2.5-0.4-4.2-0.2-4.2 0.4 0 0.6 0.4 1 1 1 0.6 0 1.1 1.2 1.2 2.8 0.3 2.7 0.4 2.7 7.5 2.7 3.9 0 7.5-0.4 8-0.8 0.4-0.5 0.8-4.8 0.9-9.5v-8.7c5.4-0.4 7.6-1.2 8.4-2 0.8-0.9 3-1.6 4.7-1.5 2.3 0 3.3-0.5 3.3-1.5 0-1 1.2-1.6 3.2-1.8l3.3-0.4c-5-0.2-6.5-0.7-6.5-1.3 0-0.6-0.6-1-1.3-0.9-0.6 0-2.1 0.4-3.2 0.9zm166.5 620c-0.8 1.5-2.4 2.1-7 2.6-3.2 0.3-6.3 1.1-6.8 1.7-0.5 0.7-1.2 3.1-1.6 5.4-0.4 2.6-0.2 4.3 0.4 4.3 0.5 0 1.7 0.3 2.7 0.7 1.2 0.6 1.5 0.4 1.2-1.2-0.3-1.2 0.6-3.1 2.1-4.8 1.5-1.6 3.5-2.8 5-2.7 1.4 0 4.9-1.2 7.7-2.5 2.9-1.4 5.3-3.2 5.3-4 0-1.1-1.1-1.5-4-1.5-2.9 0-4.2 0.5-5 2z" />
    <path fill-rule="evenodd" class="e"
        d="m485.5 171.4c7.7 0.1 17.8 0.8 22.5 1.4 4.7 0.6 9.7 1.4 11.3 1.7 1.5 0.3 2.5 0.9 2.2 1.5-0.3 0.6-3 1-6 1-3 0-6.7-0.5-8.3-1.1-1.5-0.6-4.3-1.5-6.2-2-2.1-0.4-3.9-0.4-4.5 0.2-0.6 0.5-5.9 1.1-12 1.4-6.1 0.3-15 0.6-19.9 0.7-5.3 0.2-9.1-0.1-9.3-0.7-0.1-0.6 0.3-1.1 0.9-1.2 0.7-0.1 3.8-0.5 6.8-0.9 3-0.3 6.2-1 7-1.5 0.8-0.4 7.8-0.6 15.5-0.5zm43.9 5.6c2.1 0 2.6 0.5 2.6 2.5 0 2-0.5 2.4-2.2 2.2-1.5-0.1-2.4-1-2.6-2.5-0.3-1.8 0.1-2.2 2.2-2.2zm15.6 4.2c0.3-0.1 1.2 0.2 2 0.7 0.8 0.5 1.2 1.4 0.8 2-0.5 0.6-1.5 1.1-2.3 1.1-0.8 0-1.7 0.7-2 1.5-0.4 1.1-1.7 1.4-4.7 1.2-3.6-0.2-4.3-0.6-4.5-2.5-0.2-1.7 0.3-2.3 2.3-2.5 1.4-0.2 3.7-0.6 5.2-0.9 1.5-0.3 2.9-0.6 3.2-0.6zm11.5 4.8c1.4 0 2.5 0.4 2.5 1 0 0.6 1.2 1.6 2.6 2.2 1.5 0.7 2.7 1.7 2.8 2.3 0 0.6-0.9 1.1-2.1 1.2-1.7 0.2-2.3-0.2-2.3-1.7q0-2-2-2c-1.1 0-2.7-0.2-3.5-0.5-0.8-0.3-1.3-0.9-1-1.5 0.4-0.6 1.7-1 3-1zm-9.2 3.2q3.2 0.3 3.4 2c0.2 1.4-0.4 1.8-3.2 1.8-2.9 0-3.5-0.4-3.4-2.1 0-1.7 0.6-2 3.2-1.7zm28.2 9.9c2.1 0 4.2 1.1 6.8 3.4 2 1.9 4.2 3.5 4.7 3.5 0.5 0 1 0.7 1 1.5 0 1-1 1.5-2.7 1.5-1.9 0-3.1-0.7-3.8-2.2-0.6-1.5-2-2.4-3.7-2.6-2-0.1-2.8-0.7-2.8-2.2 0-1.1-0.6-2.2-1.2-2.4-0.7-0.3 0.1-0.5 1.7-0.5zm-181 4.9c0.7 0 1.2 1 1.1 2.2 0 1.4-0.8 2.4-2.1 2.6-1.1 0.2-2.4 0-2.8-0.5-0.5-0.4-0.1-1.6 0.8-2.6 0.9-0.9 2.2-1.7 3-1.7zm-10.6 10c0.6 0 1.1 1.6 1.1 3.5 0 2.4-0.5 3.5-1.5 3.5-0.8 0-1.9 0.9-2.5 2-0.6 1.1-1.9 2-3 2-1.3 0-2.1 0.8-2.4 2.2-0.2 1.3-0.3 0.7-0.3-1.2 0-2.6 0.9-4.6 3.7-7.8 2.1-2.3 4.3-4.2 4.9-4.2zm214.6 0c1.9 0 2.9 0.8 3.9 3.2 0.9 2.2 2.2 3.4 3.8 3.5 1.2 0.2 2.6 0.8 3 1.5 0.4 0.7 0.5 1.6 0.2 2-0.2 0.5-1.5 0.8-2.9 0.8-1.5 0-2.7-0.7-3-1.8-0.4-1.1-1.8-1.8-4-2-2.8-0.1-3.6 0.2-4 1.8-0.3 1.2-1.3 2-2.5 2q-2 0-2-2c0-1.1 0.8-2.2 1.8-2.5 0.9-0.3 2-1.9 2.4-3.5 0.6-2.3 1.3-3 3.3-3zm-225.8 12c0.3 0.8-0.5 2.4-1.6 3.5-1.1 1.1-2.1 3-2.1 4.2 0 1.3-0.3 2.5-0.7 2.7-0.5 0.3-1.4 0.2-2.1-0.2-0.9-0.4-1.2-1.6-0.8-3 0.3-1.2 1.1-2.2 1.7-2.2 0.6 0 1.6-0.6 2.3-1.3 0.7-0.6 1.6-2.1 2-3.2 0.7-1.6 0.9-1.7 1.3-0.5zm239.8 3c0.3 0 1.4 1.1 2.5 2.5 1.1 1.4 2.5 2.3 3 2 0.5-0.3 1-0.1 1 0.5 0 0.6-0.5 1-1 1-0.5 0-1 0.8-1 1.7 0 1.5-0.2 1.6-1 0.3-0.7-1.2-1.1-1-1.9 1.2-0.9 2.2-1.7 2.7-3.8 2.5-2.3-0.1-2.8-0.8-3-3-0.2-2.1 0.3-2.9 2.2-3.7 1.5-0.6 2.5-1.8 2.5-3 0-1.1 0.2-2 0.5-2zm-250.6 10c0.3 0.1 1.6 0.6 4.9 2.5l-2.7 5.5c-1.7 3.6-3.3 5.6-4.6 5.8-1.1 0.2-2.3-0.2-2.6-1-0.4-0.7 0.5-3.9 1.9-7.1 1.4-3.1 2.8-5.7 3.1-5.7zm263.1 1q2 0 2 2c0 1.1 1.2 2.8 2.6 3.7 1.5 1 3 2.6 3.5 3.5 0.5 1 0.6 2.4 0.1 3.2-0.5 1-1.3 1.1-3 0.5-1.2-0.5-2.5-2.2-3-3.9-0.4-1.6-1.5-3.2-2.5-3.5-1-0.3-1.7-1.5-1.7-3 0-1.8 0.5-2.5 2-2.5zm-272.8 16.5c0.6 0.4 1 4 0.8 15.5h-3.3c-3.1 0-3.2 0.2-4 4.7-0.4 2.7-0.7 6.5-0.7 8.5 0 3.4-0.3 3.8-2.5 3.8-1.7 0-2.5-0.6-2.5-1.8 0-0.9 0.8-4.7 1.7-8.5 1-3.7 2.1-6.7 2.5-6.7 0.5 0 1.9-1.9 3.2-4.3 1.3-2.3 2.7-5.9 3.1-8 0.4-2.1 1.2-3.5 1.7-3.2zm289.5 6.3c0.8 1.5 2.1 3.4 2.8 4.2 0.8 0.8 1.5 2.3 1.5 3.2 0 1-0.9 2-2 2.3-1.8 0.4-2 1.3-2 8.5 0 5.9-0.3 7.9-1.3 7.7-0.7-0.2-1.3-2.6-1.5-6.3-0.2-3.2 0-7.5 0.3-9.4 0.5-2.7 0.9-3.1 1.6-2 0.5 0.8 0.9 1.1 0.9 0.5 0.1-0.6-0.6-1.7-1.5-2.5-0.9-0.8-1.6-2.9-1.7-4.6-0.1-1.7 0.2-3.4 0.7-3.7 0.4-0.4 1.4 0.6 2.2 2.1zm7.3 17.2c0.5 0 1.9 1.6 3 3.5 1.1 1.9 1.8 3.9 1.5 4.5-0.3 0.6-1.6 1-3 1-2.3 0-2.5-0.4-2.5-4.5 0-2.5 0.5-4.5 1-4.5zm-312.8 19.5c0.6 0.4 1 4.9 0.9 10.6-0.1 7-0.5 10.6-1.6 12.1-1.2 1.8-1.7 7.2-2.3 23.4-0.5 16.3-0.4 21.5 0.5 22.8 1.1 1.3 1 2.4-0.2 5.6-0.8 2.2-1.9 4-2.5 4-0.6 0-1.3-0.8-1.6-1.8-0.3-0.9-0.9-6.5-1.3-12.3-0.4-7.9-0.3-11 0.6-12 0.9-1 1.2-4.7 1.1-11.9-0.1-7.8 0.4-12.7 2-19 1.2-4.7 2.2-10.8 2.3-13.5 0-2.8 0.3-5.8 0.6-6.8 0.3-0.9 1-1.5 1.5-1.2zm323.3-0.5c0.3 0 1.2 1.6 2 3.5 0.8 1.9 1.5 5.1 1.5 7 0 2.2 0.8 4.3 2 5.5 1.4 1.4 2 3.3 2 6.2 0 2.4 0.7 6.7 1.5 9.5 1.4 4.9 1.4 5.3-0.3 5.9-0.9 0.3-2.2 0.4-2.7 0.1-0.5-0.2-1.4-3.3-1.9-6.8-0.5-3.5-0.8-8.3-0.8-10.7 0.2-3-0.3-4.7-1.7-6-1.1-1-2.1-3.8-2.5-7-0.3-2.8-0.4-5.6-0.1-6.2 0.4-0.6 0.8-1 1-1zm-2.4 15c0.4 0 1 3 1.3 6.7 0.3 3.8 0.6 8.9 0.6 11.5 0 4.1-0.3 4.8-2 4.8-1.9 0-2-0.7-2.2-10.8-0.1-6 0.2-11.2 0.7-11.5 0.5-0.4 1.2-0.7 1.6-0.7zm-157.4 21c6.7 0 8.3 0.3 8.3 1.5 0 0.8 1 1.6 2.2 1.7 1.8 0.2 2.4 1 2.5 3.5 0.2 2.1-0.2 3.3-1 3.3-0.6 0-1.9-1.4-2.7-3.2-1.4-3-1.9-3.3-5.5-3.2-2.2 0.1-6.1 0.6-8.8 1-4.4 0.8-4.7 0.7-4.9-1.2-0.1-1.1 0.2-2.4 0.7-2.7 0.5-0.4 4.6-0.7 9.2-0.7zm-12.5 7c1.1 0 2 0.9 2.3 2.2 0.3 1.3 0.5 8.4 0.5 15.8 0 7.4-0.4 14.5-0.8 15.8-0.5 1.6-1.3 2.2-2.7 2-1.5-0.2-2.1-1.2-2.3-4.3-0.3-2.7 0.2-4.5 1.3-5.5 1.1-1.1 1.6-3.3 1.6-8 0-4.6-0.5-6.9-1.6-8-0.9-0.8-1.6-3.1-1.7-5.1-0.1-2 0.2-3.9 0.7-4.2 0.5-0.4 1.7-0.7 2.7-0.7zm28.2 4q1.9 0 2 2.2c0.1 1.6 0.8 2.4 2.3 2.5 1.8 0.2 2.3 0.9 2.3 3 0 1.6-0.4 3.5-0.9 4.3-0.5 0.8-1.3 1.2-1.7 0.9-0.5-0.4-1.5-2.8-2.3-5.5-0.8-2.7-1.9-5.5-2.5-6.2-0.8-0.9-0.6-1.2 0.8-1.2zm11.8 6c0.6 0 1.3 1 1.4 2.2 0.2 1.3 0.4 4.9 0.4 8 0 3.7-0.4 6-1.3 6.3-0.6 0.3-1.5 1.9-1.9 3.7-0.8 3.2-0.8 3.2-2.3 1.3-0.8-1.1-1.5-2.8-1.5-3.8 0-0.9 0.6-1.9 1.2-2.1 0.8-0.2 1.6-3.3 2.1-8 0.5-4.2 1.3-7.6 1.9-7.6zm130 15c0.4 0 1 2.4 1.4 5.2 0.3 2.9 0.7 6.3 1 7.5 0.2 1.3 0.9 2.3 1.4 2.3 0.5 0 1.4-1.7 2-3.8 0.5-2 1-5.4 1-7.5 0-3.4 0.2-3.7 3-3.7 1.6 0 3.2 0.4 3.5 0.9 0.3 0.5-0.1 2.5-0.9 4.3-0.8 1.8-2.2 5.8-3.1 8.8-1 3-2.8 6.9-4.1 8.5-1.3 1.6-2.4 3.3-2.4 3.7 0 0.5-0.6 1.4-1.3 2.1-0.6 0.8-1.8 1.2-2.5 1-0.7-0.2-1.2-1.9-1.2-4.3q0-4 1.5-4.5c0.8-0.3 1.5-1.2 1.5-2 0-0.8-0.7-1.5-1.5-1.5-1.2 0-1.5-1.6-1.7-7.8-0.1-4.3 0.2-8.2 0.7-8.5 0.5-0.4 1.2-0.7 1.7-0.7zm-164.8 13c2.1 0 2.6 0.5 2.6 2.5 0 2-0.4 2.4-2.2 2.2-1.5-0.1-2.4-1-2.6-2.5-0.3-1.8 0.1-2.2 2.2-2.2zm-161.9 3c0.3 0 1.3 0.3 2.2 0.6 1.4 0.5 1.7 1.7 1.6 6.3-0.2 3.1 0.1 6.3 0.6 7.1 0.5 0.8 0.7 2.1 0.5 2.7-0.2 0.7-1.1 1.3-1.9 1.3-0.8 0-1.5-0.2-1.5-0.5 0-0.3-0.7-3.8-1.5-7.8-0.9-3.9-1.3-7.8-1.1-8.5 0.3-0.6 0.8-1.2 1.1-1.2zm211 0c3 0 3.5 0.3 3.3 2.2-0.2 1.6-1.1 2.4-2.8 2.6-1.4 0.2-3-0.3-3.7-1.2-0.7-0.9-1.1-2-0.8-2.6 0.4-0.6 2.2-1 4-1zm-11.7 5c0.4 0 2.3 0.3 4.2 0.6 1.9 0.4 3.3 1.2 3.2 1.8-0.1 0.6 0.9 2.7 2.2 4.6 1.7 2.4 2.2 3.8 1.5 4.5-0.6 0.6-0.8 1.9-0.5 3 0.3 1.1 1.4 2.3 2.6 2.7 1.4 0.6 2 1.7 2 4 0 1.8-0.4 3.9-0.8 4.6-0.4 0.8-1.2-0.3-2.2-2.9-0.8-2.3-2.7-5-4.2-6-2-1.4-2.8-2.7-2.8-4.9 0-1.6-0.6-4.2-1.4-5.8-0.7-1.5-2.1-3-3-3.5-0.9-0.4-1.6-1.1-1.6-1.7 0-0.6 0.3-1 0.8-1zm-32.1 5.7c0.7 1.5 1.2 3.6 1.3 4.5 0 1 0.7 2 1.5 2.3 1 0.3 1.5 1.8 1.5 4 0 2.2-0.5 3.7-1.5 4-0.8 0.3-1.8 2.3-2.2 4.5-0.5 2.2-1.4 4-2 4-0.8 0-1.3-1.5-1.3-3.8-0.1-2.1 0.6-4.3 1.5-5.2 0.9-0.8 1.6-2.7 1.5-4.3 0-1.5-0.7-2.9-1.5-3.2-0.9-0.3-1.6-1.9-1.7-4.3-0.1-2.1 0.3-4.2 0.8-4.6 0.5-0.4 1.4 0.5 2.1 2.1zm143.3 5.3c1.1 0 2.9 0.9 4 2 1.1 1.1 2.5 1.8 3 1.5 0.5-0.3 1.2 0.2 1.5 1 0.3 0.8-0.1 2.4-0.7 3.5-0.8 1.2-2.4 2-4 2-1.8 0-2.8-0.5-2.8-1.5 0-0.8-0.7-1.7-1.5-2-0.9-0.3-1.5-1.7-1.5-3.5 0-2.3 0.4-3 2-3zm-306.8 9.3c1.5-0.1 2.3 0.5 2.5 2 0.1 1.2 0.3 4.3 0.3 6.9 0 3.4-0.4 4.7-1.2 4.5-0.7-0.2-1.8-3.3-2.5-6.8-1.2-6.4-1.2-6.5 0.9-6.6zm171.2 3c0.6 0.2 1.6 2.2 2.1 4.4 0.6 2.2 1.7 4.8 2.5 5.7 0.8 0.9 1.2 1.7 0.8 1.6-0.5 0-1.5-0.2-2.3-0.5-0.8-0.3-1.5-1.6-1.5-3 0-1.8-0.5-2.5-2-2.5-1.4 0-2.1-0.7-2.2-2.3-0.1-1.3 0.2-2.7 0.7-3.1 0.5-0.3 1.3-0.5 1.9-0.3zm45.1 3.7c3.6 0 4.7 0.4 5.3 2 0.5 1.1 1.6 2 2.5 2 0.9 0 1.9 0.7 2.2 1.5 0.4 1.2 3.1 1.5 15.5 1.5 13.6 0 15-0.2 15-1.8 0-1.5-1.7-1.8-30.5-3.6l9-0.7c5-0.4 12.9-0.7 17.8-0.8 7.5-0.1 9.4 0.3 14 2.5 3.7 1.8 5.5 2.3 6.1 1.5 0.6-0.6 2.4-1.1 4-1.1 1.7 0 4.5-0.7 6.1-1.5 1.6-0.9 4.9-1.5 7.3-1.5 2.3 0 4.4 0.4 4.7 1 0.3 0.6-0.1 1.4-0.7 1.9-0.7 0.4-5.1 1.5-9.8 2.4-4.7 0.9-9.8 1.6-11.5 1.6-1.6 0-5.5 0.5-8.5 1.1-3 0.5-10.7 1.5-17 2-7.2 0.5-13.9 0.5-18-0.1-4.2-0.6-8.7-2.1-12.7-4.4-3.5-1.9-6.1-3.9-5.8-4.5 0.4-0.6 2.6-1 5-1zm-36.9 13.2c0.7 0.7 1.5 2.8 1.8 4.5 0.5 3 0.4 3.3-1.9 3.3-2.2 0-2.5-0.5-2.7-3.8-0.1-2.1 0.3-4.2 0.7-4.6 0.5-0.3 1.5-0.1 2.1 0.6zm-172.2 2.8c2.3 0 2.6 0.4 2.6 3.2 0 1.8 0.3 5.5 0.7 8.1 0.6 3.3 1.3 4.9 2.6 5.2 1.4 0.4 1.7 1.6 1.7 6.2-0.1 5.4-0.2 5.7-1.6 3.8-0.8-1.1-2.4-5.1-3.5-9-1.2-3.9-2.5-7.7-2.9-8.5-0.4-0.8-1.1-3.2-1.5-5.3-0.7-3.5-0.6-3.7 1.9-3.7zm10 0.2c0.6 0.3 1.2 1.3 1.3 2.3 0.1 1-0.1 4.3-0.5 7.4-0.5 4.9-0.6 5.2-1.3 2.6-0.3-1.6-0.7-5.2-0.7-7.8 0-3.2 0.4-4.7 1.2-4.5zm165.9 5.8c0.7-0.1 2 0.7 3 1.7 1.3 1.3 1.7 2.6 1.3 4.5-0.3 1.6-1.3 2.8-2.1 2.8-0.8 0-1.7 0.7-2 1.5-0.3 0.9-1.7 1.5-3.5 1.5-2.2 0-3-0.5-3-1.8 0-0.9 1-2.1 2.2-2.7 1.6-0.7 2.4-2 2.6-4.3 0.2-1.7 0.9-3.2 1.5-3.2zm10.4 15c0.4 0 1.8 0.7 3.1 1.5 1.2 0.8 2 1.9 1.7 2.5-0.3 0.6 0.9 2.4 2.5 4 1.6 1.6 2.8 3.4 2.5 4-0.3 0.6-1.4 1-2.5 1q-2 0-2.5-2.5-0.5-2.5-2.7-2.8c-1.9-0.2-2.4-0.9-2.6-4-0.2-2 0-3.7 0.5-3.7zm-178.2 9.7c0.3 0.7 1.2 1.3 2 1.3q1.5 0 1.5 3c0 1.6-0.4 3-1 3-0.6 0-1.2-0.3-1.4-0.8-0.2-0.4-0.6-2.3-1-4.2-0.3-1.9-0.4-2.9-0.1-2.3zm194.5 8.3c0.5 0 2.8 1.8 5 4 2.2 2.2 4 4.7 4 5.5 0 0.9-0.9 1.5-2.5 1.5-1.5 0-2.9-0.8-3.5-2-0.5-1.1-1.7-2-2.5-2-1 0-1.5-1.1-1.5-3.5 0-1.9 0.5-3.5 1-3.5zm-188.9 4c0.5 0 0.9 0.6 0.9 1.2 0 0.7 0.5 2 1 2.8 0.9 1.3 1.1 1.3 1.9 0 0.8-1.2 1.1-1 1.6 1 0.4 1.4 0.5 3.3 0.3 4.3-0.1 1-0.7 1.9-1.3 2-0.5 0.1-1.5-0.9-2.1-2.3-0.6-1.4-1.6-4-2.2-5.8-0.5-1.7-0.6-3.2-0.1-3.2zm12.4 5c1.1 0 1.5 1.1 1.5 4 0 2.2-0.7 4.7-1.5 5.5-0.8 0.8-1.5 2.9-1.5 4.5q0 3 1.5 3c0.9 0 1.4 0.8 1.2 2-0.1 1.2-0.6 2.1-1.2 2.2-0.6 0-1.4-0.9-2-2.1-0.6-1.2-1.7-2.3-2.5-2.6-1.1-0.4-1.4-1.4-1-4 0.3-2.1 1.2-3.6 2.2-4 1.3-0.4 1.8-1.6 1.8-4.5 0-2.9 0.4-4 1.5-4zm193.5 9c1.2 0 2.2 0.8 2.5 2 0.3 1.1 1.6 2.3 3 2.7 1.6 0.5 2.4 1.3 2 2-0.3 0.7-0.5 1.5-0.5 1.8 0 0.3-0.6 0.5-1.3 0.5-0.6 0-1.7-1-2.2-2.2-0.5-1.3-2-2.7-3.3-3.3-1.2-0.6-2.2-1.6-2.2-2.3 0-0.6 0.9-1.2 2-1.2zm15 13.2c0.8 0.2 2.2 1.7 3 3.5 0.8 1.7 2.4 3.4 3.5 3.7 1.1 0.2 2.8 1.6 3.7 3 1 1.4 1.5 2.9 1.2 3.3-0.4 0.5-0.8 0.2-1-0.5-0.2-0.6-1.8-1.2-3.4-1.2-2.5 0-3-0.4-3-2.5 0-2-0.5-2.5-2.5-2.5-2.1 0-2.5-0.5-2.8-3.5-0.1-2.7 0.2-3.5 1.3-3.3zm-199.5 9.3c0.9 1.6 1.3 3.8 1 4.7-0.3 1-0.9 1.8-1.5 1.8-0.6 0-1.7-1-2.5-2.3-0.8-1.2-1.5-2.8-1.5-3.5 0-0.6 0.7-1 1.5-0.7 1 0.3 1.5-0.1 1.5-1.3 0-1.1 0.6-0.6 1.5 1.3zm7 0.8c0.5 0.2 1.1 2.8 1.3 5.8 0.3 4.9 0.1 5.5-2 6.1-1.3 0.4-2.6 0.5-3.1 0.2-0.4-0.2-0.7-1.2-0.7-2.2 0-0.9 0.8-3.6 1.7-5.9 1-2.4 2.2-4.1 2.8-4zm208.7 6.8c1.5 0.8 3 2.4 3.3 3.6 0.3 1.3 1.1 2.3 1.8 2.3 0.6 0 2.1 0.5 3.1 1.2 1.1 0.7 1.7 2 1.3 2.8-0.3 0.9-1.5 1.4-3.1 1.2-2-0.1-2.6-0.7-2.6-2.7 0-2-0.5-2.5-2.5-2.5-1.8 0-2.5-0.5-2.5-2 0-1.1-0.3-2.7-0.7-3.6-0.7-1.5-0.5-1.5 1.9-0.3zm-206.2 11.9c0.6 0 1.2 0.5 1.5 1 0.3 0.5 1.9 1 3.5 1q3 0 6.5 3.2c2.2 2.2 3.4 4.2 3.5 6 0 1.6-0.6 2.8-1.3 2.9-0.6 0-2.2 0.2-3.5 0.5-1.8 0.3-2.5-0.4-4.2-4.1-1.1-2.5-3.1-5-4.5-5.8-1.4-0.6-2.5-2-2.5-3 0-0.9 0.4-1.7 1-1.7zm218.1 0.5l2 2.2c1 1.3 2.4 2.3 2.9 2.3 0.5 0 1.3 1 1.6 2.2 0.4 1.3 1.8 3.7 3.3 5.5 1.4 1.7 3.4 4.3 4.4 5.7 0.9 1.4 2.4 2.6 3.2 2.6 0.8 0 1.5 0.6 1.5 1.2 0 0.7 1.1 2.3 2.5 3.5 1.4 1.3 2.5 2.8 2.5 3.3 0 0.5-0.9 1-2 1-1.2 0-2.2-0.8-2.5-2-0.4-1.6-1.3-2-4.7-2-2.4 0-4.9-0.5-5.6-1.2-0.7-0.7-1.2-3.4-1.2-6.1 0-4-0.4-4.9-2.5-6.2-1.6-1-2.5-2.4-2.5-4 0-1.4-0.3-2.7-0.7-2.9-0.5-0.2-1.1-1.4-1.5-2.7zm-203.9 17.1c0.6 0.3 1 1.6 0.9 2.9-0.1 1.4-0.6 2.5-1.1 2.5-0.6 0-1.4-0.8-2-1.8q-0.9-1.7 0.2-2.9c0.5-0.7 1.5-1 2-0.7zm209.6 8.6c0.9 0.1 1.8 1.1 1.9 2 0.2 1-0.4 2.1-1.2 2.5-0.9 0.5-2.1 0.2-2.8-0.4-0.7-0.8-0.9-1.9-0.4-2.9 0.5-0.8 1.6-1.4 2.5-1.2zm-199.8 2.8c1.1 0 3.1 1 4.5 2.2 1.8 1.7 2.5 3.3 2.5 6 0 2.4-0.5 3.8-1.3 3.7-0.6 0-2.9-2.4-4.9-5.2-2-2.9-3.5-5.6-3.2-6 0.3-0.4 1.4-0.7 2.4-0.7zm219.8 3.4c0.4 0.2 1.5 2.1 2.6 4.2 1 2.1 1.6 4.7 1.2 5.6-0.4 1.1-1.3 1.6-2.4 1.2-0.9-0.3-2.9-1.5-7.2-4.9l2.6-3.3c1.4-1.8 2.9-3.1 3.2-2.8zm-204.3 16.6c2.1 0 2.5 0.5 2.5 2.7 0 1.5-0.3 3.1-0.7 3.5-0.5 0.4-1.6 0-2.6-1-1-0.9-1.8-2.5-1.7-3.5 0-1.2 0.8-1.7 2.5-1.7zm215 1c0.8 0 1.9 1 2.4 2.2 0.5 1.3 2.1 3.4 3.5 4.7 1.7 1.6 2.7 3.4 2.6 5.3 0 1.5 0.5 3.8 1.1 5 0.6 1.3 2.1 3 3.3 4 1.1 0.9 1.9 1.9 1.6 2.2-0.3 0.4-2.2 0.4-4.3 0.1-2-0.3-3.7-1.1-3.7-1.8 0-0.7-1.1-2.8-2.4-4.7-1.7-2.6-2.1-3.9-1.3-5 0.5-0.8 0.7-2.3 0.3-3.3-0.3-0.9-1.5-1.9-2.6-2.2-1.4-0.4-2-1.4-2-3.5q0-3 1.5-3zm-208.3 7.5c0.5 0.3 1 1.2 0.9 2-0.1 0.8 0.8 1.7 1.9 2 1.2 0.3 1.8 1.1 1.5 2-0.3 0.8-1.2 1.5-2 1.5-0.8 0-2.2-1.1-3-2.5-0.8-1.4-1.2-3.2-0.9-4.1 0.3-0.8 1-1.3 1.6-0.9zm8.5 7.5c0.7 0 2 0.7 2.8 1.5 0.8 0.8 1.5 2 1.5 2.7 0 0.7-0.4 1.8-0.8 2.4-0.4 0.7-1.5 0.8-3 0.3-1.2-0.5-2.7-1.9-3.3-3.2-0.9-1.7-0.8-2.4 0.2-3 0.8-0.4 2-0.7 2.6-0.7zm6.3 9c1.1 0 2 0.6 2 1.5 0 0.8 0.9 1.5 2 1.5 1.1 0 2 0.6 2 1.5 0 0.8 0.7 1.7 1.5 2 0.8 0.3 2.4 0.5 3.5 0.5 1.1 0 2.3-0.9 2.7-2.1 0.5-1.1 1.5-1.9 2.3-1.7 0.8 0.2 1.6 1 1.8 1.8 0.2 0.8-0.6 1.8-1.7 2.2-1.5 0.6-2.1 1.7-2.1 3.8 0 2.1 0.6 3.1 2 3.5 1.2 0.3 2 1.3 2 2.5 0 1.1 0.7 2 1.5 2 0.8 0 1.5 0.9 1.5 2 0 1.1-0.7 2-1.5 2-0.8 0-1.7-0.7-2-1.5-0.3-0.8-1.2-1.5-2-1.5-0.8 0-1.5-0.6-1.5-1.3 0-0.7-1.8-2.7-4-4.5-2.2-1.8-4.2-4.1-4.5-5.2-0.3-1.1-1.2-2-2-2-0.8 0-2.4-1-3.5-2.3-1.1-1.2-2-2.8-2-3.5 0-0.7 0.9-1.2 2-1.2zm195.4-0.1c1.2 0 2.7 0.7 3.3 1.5 0.7 0.9 1.1 2 0.8 2.6-0.3 0.5-2.1 1-4 1-2.7 0-3.5-0.5-3.7-1.9-0.1-1 0.2-2.1 0.7-2.5 0.5-0.3 1.8-0.6 2.9-0.7zm14.9 3.1q1 3.5-0.1 5.5c-0.9 1.8-1 1.6-1.7-1.5-0.4-1.9-0.4-4.4 0-5.5 0.7-1.8 0.9-1.6 1.8 1.5zm2.4 8.9c0.5 0 1.4 1.5 2.1 3.3 0.8 1.8 1.8 4.2 2.2 5.3 0.4 1.1 1.5 4.8 2.4 8.2 0.9 3.5 1.4 6.7 1.1 7.3-0.3 0.5-1.4 1-2.5 1-1.8 0-2.1-0.9-2.5-8-0.4-5.9-0.9-8.2-2-8.5q-1.5-0.5-1.5-4.5c0-2.2 0.3-4 0.7-4.1zm-2.7 10.6c0.4 1.1 1 4.7 1.1 8 0.3 4.8 0.1 6-1.1 6-1 0-1.6-1.2-1.8-3.5-0.2-1.9 0-5.5 0.3-8 0.6-3.6 0.9-4.1 1.5-2.5zm-184.3 0.5c0.7 0 2 0.7 2.8 1.5 0.8 0.8 1.5 2 1.5 2.7 0 0.7-0.4 1.9-0.8 2.6-0.5 1.1-1.2 1.1-3 0.3-1.2-0.6-2.7-2.1-3.3-3.4-0.9-1.7-0.8-2.4 0.2-3 0.8-0.4 2-0.7 2.6-0.7zm6.3 9c1.2 0 2 0.6 2 1.7 0 1-0.5 2.5-1 3.3-0.9 1.3-1.1 1.3-2 0-0.5-0.8-1-2.3-1-3.3 0-1.1 0.8-1.7 2-1.7zm-81.5 1.4c3.8 0.1 7.6 0.5 8.2 0.9 0.7 0.4 1.1 1.1 0.8 1.7-0.3 0.5-4.6 1-9.8 1-5 0-9.9-0.4-10.7-0.9-1.2-0.7-0.9-1.1 1.5-1.9 1.6-0.6 6.1-1 10-0.8zm88 6.5c2.8 0.4 5.6 1 6.2 1.4 0.7 0.4 1.3 1.2 1.3 1.9-0.1 0.7 0.8 2.5 2 4 1.6 2.2 2 4.3 2 10.5 0 4.3-0.4 8.5-0.9 9.3-0.7 1.1-1.2 0.4-2.1-3-0.6-2.5-1.3-5.1-1.6-5.8-0.2-0.7-1.3-1-2.4-0.7-1.4 0.3-2.4-0.2-3.3-2-0.9-1.8-0.9-2.7-0.1-3.7 0.8-0.9 0.9-2.1 0.3-3.6-0.5-1.2-2-2.9-3.4-3.7-1.4-0.8-2.6-2.3-2.7-3.3-0.2-1.7 0.4-1.8 4.7-1.3zm-102 0.1c1 0 1.5 0.9 1.5 2.7 0 1.9-0.7 3.1-2.2 3.8-1.5 0.6-2.4 2-2.6 3.7-0.1 2-0.7 2.8-2.2 2.8-1.3 0-2.1 0.8-2.4 2.2-0.2 1.3-0.4 0.5-0.5-1.7-0.1-3.2 0.4-4.6 2.5-6.5 1.4-1.4 3-3.5 3.5-4.8 0.5-1.2 1.5-2.2 2.4-2.2zm33.5 2.2c0.6 1 1.4 1.6 2 1.3 0.5-0.3 1-0.1 1 0.5 0 0.5 2.5 1 5.5 1 4.7 0 5.6 0.3 6 2 0.3 1.1 1.1 1.7 1.7 1.4 0.7-0.2 2.5 0.8 3.9 2.3 1.5 1.5 3 3.9 3.4 5.3 0.3 1.4 0.3 2-0.2 1.5-0.4-0.6-1.7-1.2-2.8-1.4-1.1-0.2-3-0.7-4.3-1.2q-2.2-0.9-2.2-3.4c0-2.2-0.5-2.5-3.3-2.5-1.7 0-5.1-0.8-7.5-1.8-3.5-1.4-4.3-2.2-4.2-4.2 0.1-2.2 0.2-2.3 1-0.8zm-48.8 17.3c0.6 0.3 1 2.1 0.9 4-0.1 2.6-0.6 3.6-2.1 4-1.6 0.4-2 1.3-2 4.2 0 2.1-0.8 5.7-1.8 8.1-1.4 3.5-2.2 4.2-4.2 4.1-1.4 0-1.9-0.3-1.3-0.5 0.7-0.2 1.3-1.1 1.3-1.9 0-0.8 0.4-1.5 1-1.5 0.5 0 1-2.5 1-5.5 0-4.7 0.3-5.6 2-6 1.2-0.3 1.8-1.1 1.5-2-0.3-0.8-0.1-1.5 0.5-1.5 0.5 0 0.9-0.4 0.8-0.8-0.1-0.4 0.2-1.7 0.6-3 0.4-1.2 1.3-2 1.8-1.7zm77.7 0c2 0 4.7 0.7 6.1 1.6 1.4 0.8 4.3 2.3 6.5 3.4 2.2 1 4.6 1.8 5.2 1.9 0.7 0 1.2 0.5 1 1.1-0.2 0.5-2.7 1.1-5.5 1.2-4.7 0.3-5.3 0-6.2-2.2-0.6-1.5-1.8-2.5-3-2.5-1.3 0-2.3 0.9-3.8 5.5l-1-2.5c-0.5-1.4-1.1-3.4-1.3-4.5-0.2-1.1-0.7-2.2-1-2.5-0.4-0.3 0.9-0.5 3-0.5zm-13.2 3.5c1 0 2.4 0.5 3.1 1.2 0.7 0.7 1.2 2.1 1.2 3 0 1.3-0.8 1.8-3 1.8-2.7 0-3-0.4-3-3 0-2.2 0.5-3 1.7-3zm53.9 1c0.8 0 1.4 1 1.4 2.5 0 1.8-0.5 2.5-2 2.5-1.1 0-2-0.5-2-1 0-0.6 0.3-1.7 0.6-2.5 0.3-0.8 1.2-1.5 2-1.5zm-134.4 24.5c0.6 0.3 0.9 1.6 0.9 2.8-0.1 1.2-0.4 3.3-0.7 4.7-0.5 2-0.8 2.2-1.5 1-0.7-1.2-0.9-1-0.9 0.7 0 1.3 0.7 2.5 1.5 2.8 1 0.3 1.4 1.5 1.2 3.5-0.1 1.7-0.7 3.1-1.2 3.3-0.6 0.1-1.1-1.5-1.3-3.6-0.2-3-0.6-3.7-2.2-3.7-1.1 0-2-0.6-2-1.3-0.1-0.7 0.8-2.3 1.8-3.7 1.1-1.4 2.3-3.5 2.7-4.8 0.4-1.2 1.2-2 1.7-1.7zm305 10.5c0.4 0 0.8 1.8 0.8 4 0 2.2 0.5 5.2 1.1 6.7 1 2.7 1.1 2.7 2.5 0.8 0.8-1.1 1.8-4.2 2.2-6.8 0.6-4.2 1-4.8 3.2-4.8 2.3 0 2.4 0.3 1.7 3.3-0.5 1.8-1.1 4.2-1.3 5.3-0.3 1.1-0.7 3.8-1 6-0.3 2.2-0.8 4.7-1 5.5-0.4 1.1-0.8 0.8-1.7-1-0.7-1.4-2-2.6-3-2.8-1.3-0.2-1.7 0.6-1.7 3.5-0.1 2.2 0.6 4.4 1.5 5.3 0.9 0.8 1.6 2.6 1.6 4-0.1 1.4-0.5 2.9-1.1 3.5-0.5 0.5-1.6 2.1-2.3 3.4-0.6 1.3-1.8 2.6-2.5 2.8-0.7 0.2-1.2-0.8-1.2-2.7 0-1.8 0.6-3.2 1.5-3.5 0.9-0.3 1.5-1.7 1.5-3.5 0-1.8-0.6-3.2-1.5-3.5-1.2-0.4-1.5-2.8-1.7-12.4-0.1-6.5 0.2-12.1 0.7-12.5 0.5-0.3 1.2-0.6 1.7-0.6zm-312.6 9.5c0.8 1.1 1.4 3.4 1.4 5.2 0 2.8-0.4 3.3-2.5 3.3-1.5 0-2.7 0.7-3 1.7-0.2 1-0.2-0.4 0-3 0.3-2.6 1-5.7 1.6-7 1.1-2.2 1.2-2.2 2.5-0.2zm-6.1 22.5c0.8 0 1.7 0.4 1.9 1 0.3 0.5 0.3 1.9 0 3-0.2 1.1-1.1 2.2-1.9 2.5-1.1 0.4-1.5-0.4-1.5-3 0-2.5 0.5-3.5 1.5-3.5zm12.3 0.2c1.3 0.2 1.7 1.4 1.7 4.3 0 3.3-0.3 4-2 4-1.5 0-2.1-0.8-2.3-3-0.2-1.7 0-3.6 0.3-4.3 0.3-0.8 1.4-1.2 2.3-1zm-4.2 10.8c0.8 0 1.4 1 1.4 2.5 0 1.4-0.7 2.7-1.5 3-0.8 0.3-1.5 1.6-1.5 3 0 1.8-0.5 2.4-1.7 2.2-1-0.1-1.9-1.1-2.1-2.2-0.2-1.1 0.3-2.5 1.1-3 0.8-0.6 1.7-2 2.1-3.3 0.4-1.2 1.4-2.2 2.2-2.2zm305.5 0.5c0.5 0.3 0.5 1.2 0 2.2-0.4 1-0.7 2.3-0.5 3 0.2 0.7 0 2.1-0.5 3-0.5 1-2.4 3.6-4.3 5.8-1.8 2.2-3.6 4.7-4 5.5-0.3 0.8-0.8 1.3-1.2 1-0.3-0.3 0.1-1.9 0.9-3.5 0.8-1.7 1.5-3.5 1.5-4 0-0.6 0.8-1.5 1.7-2.1 1-0.6 2.2-2.8 2.7-4.8 0.6-2.1 1.4-4.4 1.9-5.2 0.5-0.8 1.3-1.2 1.8-0.9zm-11.7 4.5c0.9 0 1.4 0.8 1.3 2.5-0.1 1.4-0.7 2.5-1.2 2.5-0.6 0-1.1-1.1-1.3-2.5-0.2-1.7 0.1-2.5 1.2-2.5zm-288.2 5.6c0.6 0.3 1 1.6 0.9 2.9-0.1 1.4-1.1 3.6-2.4 4.9-1.2 1.4-2.4 2.5-2.7 2.6-0.3 0-0.9-1.4-1.3-3.2-0.7-2.9-0.4-3.6 1.9-5.5 1.5-1.2 3.1-2 3.6-1.7zm13.6 10.6c2.1 0.2 2.8 0.9 2.9 3 0.2 2.2-0.3 3-2.5 3.8-2.2 0.9-2.4 1.3-1.2 2.1 1.1 0.7 0.8 0.9-1.4 0.7-1.6-0.2-3.4-1.2-4-2.2-0.8-1.4-0.8-2 0.1-2.2 0.7-0.3 1.8-1.6 2.4-3 0.8-2 1.6-2.5 3.7-2.2zm260.9-0.2c1.6 0 2.6 0.8 3.4 2.7 0.8 2.3 1.2 2.5 1.9 1.3 0.8-1.2 1-1 0.9 1 0 1.4-0.9 3.5-1.9 4.7-1.1 1.3-2.2 2.3-2.5 2.3-0.3 0-0.5-0.9-0.5-2 0-1.2-1-2.4-2.5-3-1.6-0.6-2.6-1.9-2.7-3.4-0.1-1.2 0.2-2.6 0.7-3 0.5-0.3 1.9-0.6 3.2-0.6zm-256 16c1.3 0 2.5 0.7 2.8 1.7 0.3 1 2 2.2 3.8 2.8 2.2 0.7 3.3 1.7 3.4 3.2 0.3 1.9-0.2 2.3-2.5 2.3-1.9 0-3.2-0.9-4.5-3-1-1.8-2.5-3-3.7-3-1.1 0-2.2-0.6-2.5-1.3-0.2-0.7-0.1-1.6 0.2-2 0.4-0.4 1.7-0.7 3-0.7zm238.3 0c1.2 0 2.2 0.8 2.5 2 0.4 1.6 1.2 1.9 4 1.7 2.2-0.1 3.6-0.8 4-2 0.3-1.1 1.3-1.6 2.7-1.5 1.3 0.2 2.3 1 2.3 1.8 0 0.8-1 1.6-2.3 1.7q-2.2 0.3-3.7 3.8c-1.1 2.6-2.1 3.5-4 3.5-1.9 0-2.7-0.7-3.3-3-0.4-1.6-1.5-3.2-2.5-3.5-0.9-0.3-1.7-1.4-1.7-2.5q0-2 2-2zm-217.6 16c1.2 0 3.2 0.3 4.6 0.6 2 0.5 2.2 0.8 1 1.5-1.2 0.7-1 0.9 0.7 0.9 1.3 0 2.5-0.7 2.8-1.5 0.4-1.2 2.1-1.5 8.2-1.3q7.6 0.3 8 1.5c0.2 1-1.8 1.3-7.7 1.3-7.2 0-8.1 0.2-8.5 2-0.3 1.1-1 2-1.5 2-0.6 0-3.3-1.3-6-2.8-2.8-1.5-4.7-3.1-4.3-3.5 0.3-0.4 1.6-0.7 2.7-0.7zm186 0.3c0.6 0.2 1.2 1.1 1.3 2 0.2 0.9-0.4 1.7-1.2 1.7-0.8 0-1.7-0.5-2-1-0.3-0.6-0.2-1.5 0.1-2.1 0.4-0.6 1.2-0.9 1.8-0.6zm-163.9 8.7c2.8 0 3.5 0.4 3.5 2 0 1.1-0.5 2.2-1 2.5-0.6 0.3-2.1-0.1-3.5-0.8-1.4-0.7-2.5-1.8-2.5-2.5 0-0.7 1.4-1.2 3.5-1.2zm15.9 7c2.2 0 3.6 0.5 3.6 1.2 0 0.7-0.3 1.6-0.7 2-0.5 0.3-1.9 0.3-3.2 0-1.3-0.4-2.6-1.3-2.9-2-0.3-0.8 0.7-1.2 3.2-1.2zm43.9 0c5 0.1 15.9 0.4 39.2 1.4l-8.5 0.8c-4.7 0.5-11.4 1.1-15 1.4-3.8 0.4-7.3 0.2-8.5-0.4-1.3-0.7-4.4-0.8-9-0.2-3.9 0.5-7.1 1.1-7.3 1.2-0.2 0.2-0.1 1.3 0.2 2.5 0.5 1.8 1.1 2.1 2.8 1.6 1.3-0.3 15.6-0.8 31.8-1 16.2-0.3 32.6-0.4 36.5-0.3 5.5 0.1 7.2-0.2 7.7-1.4 0.6-1.3 2.5-1.6 8.8-1.6 4.4 0 8.2-0.4 8.3-0.9 0.2-0.5 1.4-0.5 2.8 0 2 0.8 2.1 1.1 0.9 1.9-0.8 0.5-2.9 1-4.5 1-1.7 0-4.6 0.4-6.5 0.9-1.9 0.5-6.2 1.7-9.5 2.5-3.3 0.9-11.2 1.9-17.5 2.2-6.3 0.3-20.2 0.5-30.8 0.5-12.8-0.1-21.3-0.6-25.5-1.6-3.4-0.8-10.5-1.9-15.7-2.4-5.2-0.6-10.4-1.4-11.4-1.8-1-0.5-2.2-1.5-2.6-2.3-0.6-1.2-0.2-1.4 2.3-1.2 1.7 0.2 4.2-0.1 5.6-0.8 1.8-0.8 3.2-0.9 4.6-0.2 1.1 0.5 4.1 1.2 6.7 1.6 4.4 0.5 4.8 0.4 4.8-1.4 0-1.9 0.7-2.1 9.3-2zm50.4 0c3.2 0 4.3 0.4 4.3 1.5 0 1.1-1.2 1.5-4.5 1.5-2.5 0-5.3-0.3-6.3-0.7-1.6-0.6-1.5-0.7 0.3-1.4 1.1-0.4 3.9-0.8 6.2-0.9zm48 0c3 0 4.2 0.4 4 1.2-0.2 0.7-1.4 1.4-2.8 1.6-1.3 0.2-4 0-5.9-0.4-3-0.6-3.2-0.8-1.5-1.5 1.1-0.4 3.9-0.8 6.2-0.9z" />
</svg>